<svg xmlns="http://www.w3.org/2000/svg" viewBox="0 0 800 500" font-family="Inter, Segoe UI, Arial, sans-serif">
  <defs>
    <linearGradient id="g" x1="0" y1="0" x2="1" y2="1"><stop offset="0" stop-color="#00c8ff"/><stop offset="1" stop-color="#7c5cff"/></linearGradient>
    <radialGradient id="glowA" cx="0.15" cy="0.15" r="0.6"><stop offset="0" stop-color="#00c8ff" stop-opacity="0.25"/><stop offset="1" stop-color="#00c8ff" stop-opacity="0"/></radialGradient>
    <radialGradient id="glowB" cx="0.9" cy="0.9" r="0.6"><stop offset="0" stop-color="#7c5cff" stop-opacity="0.3"/><stop offset="1" stop-color="#7c5cff" stop-opacity="0"/></radialGradient>
  </defs>
  <rect width="800" height="500" fill="#070b14"/>
  <rect width="800" height="500" fill="url(#glowA)"/><rect width="800" height="500" fill="url(#glowB)"/>
  <g transform="translate(50,40)">
    <rect width="700" height="420" rx="18" fill="#0a0f1a" stroke="#ffffff" stroke-opacity="0.12"/>
    <circle cx="24" cy="22" r="5" fill="#ff5f57"/><circle cx="42" cy="22" r="5" fill="#febc2e"/><circle cx="60" cy="22" r="5" fill="#28c840"/>
    <text x="84" y="26" fill="#94a3bb" font-size="12">Meal Attendance Tracking</text>
    <line x1="0" y1="44" x2="700" y2="44" stroke="#ffffff" stroke-opacity="0.08"/>

    <!-- scanner -->
    <g transform="translate(24,62)">
      <rect width="230" height="336" rx="16" fill="#101827"/>
      <text x="18" y="28" fill="#eef2fb" font-size="13" font-weight="600">Check-in</text>
      <g transform="translate(55,44)">
        <rect width="120" height="120" rx="14" fill="#0a0f1a" stroke="#00c8ff" stroke-opacity="0.5" stroke-dasharray="6 5"/>
        <g fill="#eef2fb"><rect x="18" y="18" width="30" height="30"/><rect x="72" y="18" width="30" height="30"/><rect x="18" y="72" width="30" height="30"/><rect x="56" y="56" width="10" height="10"/><rect x="74" y="74" width="10" height="10"/><rect x="90" y="88" width="12" height="12"/><rect x="56" y="88" width="10" height="10"/></g>
        <g fill="#0a0f1a"><rect x="25" y="25" width="16" height="16"/><rect x="79" y="25" width="16" height="16"/><rect x="25" y="79" width="16" height="16"/></g>
        <rect x="8" y="58" width="104" height="3" rx="2" fill="#00c8ff"/>
      </g>
      <text x="115" y="190" fill="#94a3bb" font-size="11" text-anchor="middle">Scan employee QR code</text>
      <rect x="18" y="212" width="194" height="46" rx="12" fill="#3ef2b0" fill-opacity="0.14" stroke="#3ef2b0" stroke-opacity="0.5"/>
      <circle cx="42" cy="235" r="11" fill="#3ef2b0"/><path d="M36 235 l5 5 l9 -10" stroke="#04121a" stroke-width="2.6" fill="none" stroke-linecap="round" stroke-linejoin="round"/>
      <text x="62" y="231" fill="#eef2fb" font-size="12" font-weight="600">Checked in</text><text x="62" y="246" fill="#94a3bb" font-size="10">Lunch · 12:34</text>
      <rect x="18" y="278" width="194" height="34" rx="17" fill="url(#g)"/><text x="115" y="300" fill="#04121a" font-size="12" font-weight="700" text-anchor="middle">Manual entry</text>
    </g>

    <!-- meals + list -->
    <g transform="translate(270,62)">
      <g font-size="11">
        <g><rect width="128" height="64" rx="14" fill="#101827"/><text x="16" y="26" fill="#94a3bb">Breakfast</text><rect x="16" y="38" width="96" height="7" rx="4" fill="#ffffff" fill-opacity="0.07"/><rect x="16" y="38" width="54" height="7" rx="4" fill="url(#g)"/></g>
        <g transform="translate(139,0)"><rect width="128" height="64" rx="14" fill="#101827"/><text x="16" y="26" fill="#94a3bb">Lunch</text><rect x="16" y="38" width="96" height="7" rx="4" fill="#ffffff" fill-opacity="0.07"/><rect x="16" y="38" width="82" height="7" rx="4" fill="url(#g)"/></g>
        <g transform="translate(278,0)"><rect width="128" height="64" rx="14" fill="#101827"/><text x="16" y="26" fill="#94a3bb">Dinner</text><rect x="16" y="38" width="96" height="7" rx="4" fill="#ffffff" fill-opacity="0.07"/><rect x="16" y="38" width="36" height="7" rx="4" fill="url(#g)"/></g>
      </g>
      <g transform="translate(0,78)">
        <rect width="406" height="258" rx="16" fill="#101827"/>
        <text x="18" y="28" fill="#eef2fb" font-size="13" font-weight="600">Today's attendance</text>
        <rect x="290" y="12" width="98" height="24" rx="12" fill="#ffffff" fill-opacity="0.07" stroke="#ffffff" stroke-opacity="0.15"/><text x="339" y="28" fill="#eef2fb" font-size="11" text-anchor="middle">Print report</text>
        <g font-size="12" fill="#eef2fb">
          <circle cx="32" cy="66" r="12" fill="#00c8ff"/><text x="54" y="70" font-weight="600">Staff member 1</text><rect x="316" y="56" width="72" height="20" rx="10" fill="#3ef2b0" fill-opacity="0.16"/><text x="352" y="70" fill="#3ef2b0" font-size="10" font-weight="600" text-anchor="middle">Present</text>
          <circle cx="32" cy="106" r="12" fill="#7c5cff"/><text x="54" y="110" font-weight="600">Staff member 2</text><rect x="316" y="96" width="72" height="20" rx="10" fill="#3ef2b0" fill-opacity="0.16"/><text x="352" y="110" fill="#3ef2b0" font-size="10" font-weight="600" text-anchor="middle">Present</text>
          <circle cx="32" cy="146" r="12" fill="#3ef2b0"/><text x="54" y="150" font-weight="600">Staff member 3</text><rect x="316" y="136" width="72" height="20" rx="10" fill="#94a3bb" fill-opacity="0.16"/><text x="352" y="150" fill="#94a3bb" font-size="10" font-weight="600" text-anchor="middle">Pending</text>
          <circle cx="32" cy="186" r="12" fill="#febc2e"/><text x="54" y="190" font-weight="600">Staff member 4</text><rect x="316" y="176" width="72" height="20" rx="10" fill="#3ef2b0" fill-opacity="0.16"/><text x="352" y="190" fill="#3ef2b0" font-size="10" font-weight="600" text-anchor="middle">Present</text>
          <circle cx="32" cy="226" r="12" fill="#ff7a59"/><text x="54" y="230" font-weight="600">Staff member 5</text><rect x="316" y="216" width="72" height="20" rx="10" fill="#94a3bb" fill-opacity="0.16"/><text x="352" y="230" fill="#94a3bb" font-size="10" font-weight="600" text-anchor="middle">Pending</text>
        </g>
      </g>
    </g>
  </g>
</svg>
